<svg width="479" height="36" viewBox="0 0 479 36" fill="none" xmlns="http://www.w3.org/2000/svg">
<path fill-rule="evenodd" clip-rule="evenodd" d="M25.1002 27.4495C24.463 27.8165 23.7254 28 22.8874 28C21.9359 28 21.0455 27.8209 20.2162 27.4626C19.3869 27.1044 18.6559 26.6086 18.023 25.9751C17.3901 25.3416 16.8948 24.6099 16.5369 23.7798C16.179 22.9498 16 22.0585 16 21.1062C16 20.1538 16.179 19.2626 16.5369 18.4325C16.8948 17.6024 17.3901 16.8707 18.023 16.2372C18.6559 15.6038 19.3869 15.1079 20.2162 14.7497C21.0455 14.3914 21.9359 14.2123 22.8874 14.2123C23.7254 14.2123 24.463 14.3936 25.1002 14.7562C25.7375 15.1188 26.2656 15.5972 26.6846 16.1913V8H29.8795V27.6592H26.6846V26.021C26.2656 26.6064 25.7375 27.0826 25.1002 27.4495ZM21.1001 24.4089C21.6544 24.7497 22.2632 24.9201 22.9266 24.9201C23.6075 24.9201 24.2098 24.7497 24.7336 24.4089C25.2574 24.0682 25.6676 23.6073 25.9644 23.0262C26.2612 22.4452 26.4096 21.8052 26.4096 21.1062C26.4096 20.3984 26.2612 19.754 25.9644 19.173C25.6676 18.592 25.2552 18.1311 24.7271 17.7903C24.1989 17.4495 23.5988 17.2792 22.9266 17.2792C22.2545 17.2792 21.6435 17.4517 21.0935 17.7969C20.5436 18.142 20.1027 18.6029 19.771 19.1796C19.4393 19.7562 19.2735 20.3984 19.2735 21.1062C19.2735 21.8139 19.4393 22.4561 19.771 23.0328C20.1027 23.6094 20.5458 24.0682 21.1001 24.4089ZM39.2939 28C40.0883 28 40.7801 27.8187 41.3693 27.4561C41.9585 27.0935 42.4365 26.6195 42.8031 26.0341L42.934 27.6592H46.142V14.5531H42.9471L43.0912 16.2307C42.6111 15.6365 42.0284 15.1472 41.3431 14.7628C40.6579 14.3783 39.8788 14.1861 39.0059 14.1861C38.0719 14.1861 37.1989 14.3609 36.3871 14.7104C35.5753 15.0599 34.8595 15.5448 34.2397 16.1651C33.6199 16.7855 33.1398 17.5063 32.7994 18.3277C32.459 19.149 32.2887 20.0271 32.2887 20.962C32.2887 21.9318 32.4677 22.8405 32.8256 23.6881C33.1835 24.5356 33.6854 25.2827 34.3314 25.9292C34.9773 26.5758 35.7237 27.0826 36.5704 27.4495C37.4172 27.8165 38.325 28 39.2939 28ZM37.5721 24.422C38.1351 24.754 38.7396 24.9201 39.3856 24.9201C40.0839 24.9201 40.6906 24.7409 41.2056 24.3827C41.7207 24.0245 42.1113 23.5461 42.3775 22.9476C42.6438 22.3491 42.7507 21.6872 42.6983 20.962C42.6372 20.2805 42.4365 19.6623 42.096 19.1075C41.7556 18.5526 41.3191 18.1092 40.7866 17.7772C40.2542 17.4452 39.6562 17.2792 38.9928 17.2792C38.3032 17.2792 37.6856 17.4583 37.14 17.8165C36.5944 18.1747 36.1732 18.6531 35.8765 19.2516C35.5797 19.8502 35.4618 20.5164 35.5229 21.2503C35.5928 21.9231 35.811 22.5369 36.1776 23.0917C36.5442 23.6466 37.0091 24.09 37.5721 24.422ZM53.7626 27.6592V17.751H56.3028V14.5531H53.7626V10.4377H50.5677V14.5531H48.6299V17.751H50.5677V27.6592H53.7626ZM67.1118 27.4561C66.5226 27.8187 65.8308 28 65.0364 28C64.0675 28 63.1597 27.8165 62.3129 27.4495C61.4662 27.0826 60.7198 26.5758 60.0739 25.9292C59.4279 25.2827 58.926 24.5356 58.5681 23.6881C58.2102 22.8405 58.0312 21.9318 58.0312 20.962C58.0312 20.0271 58.2015 19.149 58.5419 18.3277C58.8823 17.5063 59.3624 16.7855 59.9822 16.1651C60.602 15.5448 61.3178 15.0599 62.1296 14.7104C62.9414 14.3609 63.8143 14.1861 64.7484 14.1861C65.6213 14.1861 66.4004 14.3783 67.0856 14.7628C67.7709 15.1472 68.3535 15.6365 68.8336 16.2307L68.6896 14.5531H71.8845V27.6592H68.6765L68.5456 26.0341C68.179 26.6195 67.701 27.0935 67.1118 27.4561ZM65.1281 24.9201C64.4821 24.9201 63.8776 24.754 63.3146 24.422C62.7516 24.09 62.2867 23.6466 61.9201 23.0917C61.5535 22.5369 61.3352 21.9231 61.2654 21.2503C61.2043 20.5164 61.3221 19.8502 61.6189 19.2516C61.9157 18.6531 62.3369 18.1747 62.8825 17.8165C63.4281 17.4583 64.0457 17.2792 64.7353 17.2792C65.3987 17.2792 65.9967 17.4452 66.5291 17.7772C67.0616 18.1092 67.4981 18.5526 67.8385 19.1075C68.179 19.6623 68.3797 20.2805 68.4408 20.962C68.4932 21.6872 68.3863 22.3491 68.12 22.9476C67.8538 23.5461 67.4632 24.0245 66.9481 24.3827C66.4331 24.7409 65.8264 24.9201 65.1281 24.9201ZM84.6837 27.4626C83.8501 27.8209 82.9532 28 81.993 28C81.1724 28 80.4457 27.8143 79.8128 27.443C79.18 27.0716 78.6497 26.5889 78.2219 25.9948V27.6592H75.027V8H78.2219V16.1913C78.6497 15.5972 79.18 15.1145 79.8128 14.7431C80.4457 14.3718 81.1724 14.1861 81.993 14.1861C83.2674 14.1861 84.4284 14.4963 85.4759 15.1166C86.5234 15.737 87.3571 16.5692 87.9768 17.6134C88.5966 18.6575 88.9065 19.813 88.9065 21.0799C88.9065 22.0323 88.7276 22.9279 88.3697 23.7667C88.0118 24.6055 87.5164 25.3416 86.8835 25.9751C86.2506 26.6086 85.5174 27.1044 84.6837 27.4626ZM81.9537 24.9069C81.2903 24.9069 80.6967 24.7366 80.1729 24.3958C79.6492 24.055 79.2389 23.5941 78.9421 23.0131C78.6453 22.4321 78.4969 21.7877 78.4969 21.0799C78.4969 20.3897 78.6453 19.754 78.9421 19.173C79.2389 18.592 79.6492 18.1289 80.1729 17.7837C80.6967 17.4386 81.2903 17.2661 81.9537 17.2661C82.6258 17.2661 83.2412 17.4364 83.7999 17.7772C84.3586 18.118 84.8038 18.5789 85.1355 19.1599C85.4672 19.7409 85.633 20.381 85.633 21.0799C85.633 21.7877 85.4672 22.4299 85.1355 23.0066C84.8038 23.5832 84.3608 24.0441 83.8065 24.3893C83.2522 24.7344 82.6346 24.9069 81.9537 24.9069ZM94.0458 12.135C93.7272 12.4452 93.3366 12.6003 92.8739 12.6003C92.4113 12.6003 92.0185 12.4452 91.6955 12.135C91.3725 11.8248 91.211 11.4338 91.211 10.962C91.211 10.4989 91.3725 10.1101 91.6955 9.79554C92.0185 9.481 92.4113 9.32372 92.8739 9.32372C93.3366 9.32372 93.7272 9.481 94.0458 9.79554C94.3645 10.1101 94.5238 10.4989 94.5238 10.962C94.5238 11.4338 94.3645 11.8248 94.0458 12.135ZM111.874 17.6003C112.337 17.6003 112.727 17.4452 113.046 17.135C113.364 16.8248 113.524 16.4338 113.524 15.962C113.524 15.4989 113.364 15.1101 113.046 14.7955C112.727 14.481 112.337 14.3237 111.874 14.3237C111.411 14.3237 111.018 14.481 110.695 14.7955C110.373 15.1101 110.211 15.4989 110.211 15.962C110.211 16.4338 110.373 16.8248 110.695 17.135C111.018 17.4452 111.411 17.6003 111.874 17.6003ZM11.6275 25.4777C10.3634 26.7084 8.81352 27.3237 6.97792 27.3237C5.14231 27.3237 3.58378 26.7084 2.30232 25.4777C1.02086 24.2471 0.380127 22.6957 0.380127 20.8237C0.380127 18.9864 1.02086 17.4437 2.30232 16.1957C3.58378 14.9477 5.14231 14.3237 6.97792 14.3237C8.81352 14.3237 10.3634 14.9477 11.6275 16.1957C12.8917 17.4437 13.5238 18.9864 13.5238 20.8237C13.5238 22.6957 12.8917 24.2471 11.6275 25.4777ZM94.4583 14.5531H91.2634V27.6592H94.4583V14.5531ZM108.857 24.4613V27.6592H97.675V24.4613L104.261 17.751H97.675V14.5531H108.857V17.751L102.284 24.4613H108.857Z" fill="#ADADAD"/>
<path fill-rule="evenodd" clip-rule="evenodd" d="M204.99 3.5979V0H200.802V3.5979H204.99ZM190.827 17.863C192.266 17.863 193.547 17.3755 194.552 16.5326L194.953 17.4466H198.101V0.693604H193.896V5.58935C193.011 5.0414 191.968 4.73483 190.827 4.73483C187.038 4.73483 184.338 7.46728 184.338 11.2924C184.338 12.9099 184.821 14.3343 185.665 15.4397V31.457H189.918V24.8843C189.918 23.3048 190.721 22.3944 192.008 22.3944C193.118 22.3944 193.619 23.1181 193.619 24.5376V31.457H197.872V24.0451C197.872 20.8547 196.05 18.7846 193.215 18.7846C191.984 18.7846 190.828 19.2287 189.918 19.9585V17.8086C190.213 17.8446 190.517 17.863 190.827 17.863ZM191.396 14.1092C189.803 14.1092 188.632 12.8998 188.632 11.2927C188.632 9.6853 189.803 8.47589 191.396 8.47589C192.99 8.47589 194.161 9.6853 194.161 11.2927C194.161 12.8998 192.99 14.1092 191.396 14.1092ZM164.202 16.5631C163.191 17.3796 161.91 17.85 160.476 17.85C156.699 17.85 154 15.1044 154 11.2792C154 7.46728 156.699 4.75421 160.476 4.75421C161.93 4.75421 163.229 5.23834 164.249 6.0769L164.684 5.12506L167.855 5.12528V17.4336H164.566L164.202 16.5631ZM158.28 11.289C158.28 12.8964 159.451 14.0962 161.044 14.0962C162.638 14.0962 163.809 12.8964 163.809 11.289C163.809 9.69141 162.638 8.49158 161.044 8.49158C159.441 8.49158 158.28 9.69141 158.28 11.289ZM176.466 17.85C180.114 17.85 182.544 15.6067 182.544 12.1626V5.13825H178.29V11.9782C178.29 13.2645 177.603 14.0415 176.466 14.0415C175.33 14.0415 174.629 13.2775 174.629 11.9782V5.13824H170.375V12.1626C170.375 15.6067 172.818 17.85 176.466 17.85ZM205.023 5.13806V17.4464H204.637V17.6083H200.448V14.0104H200.769V5.13806H205.023ZM223.663 8.27654C224.126 8.27654 224.516 8.12145 224.835 7.81127C225.153 7.50109 225.313 7.11009 225.313 6.63827C225.313 6.17519 225.153 5.78637 224.835 5.47182C224.516 5.15727 224.126 5 223.663 5C223.2 5 222.807 5.15727 222.484 5.47182C222.161 5.78637 222 6.17519 222 6.63827C222 7.11009 222.161 7.50109 222.484 7.81127C222.807 8.12145 223.2 8.27654 223.663 8.27654ZM213.904 17.85C217.917 17.85 220.828 15.0948 220.828 11.2924C220.828 7.47706 217.917 4.73505 213.904 4.73505C209.877 4.73505 206.979 7.47706 206.979 11.2924C206.979 12.5692 207.306 13.728 207.893 14.704H207.345V31.457H211.599V17.5216C212.31 17.7357 213.084 17.85 213.904 17.85ZM213.904 14.0417C212.353 14.0415 211.24 12.9198 211.24 11.2926C211.24 9.66541 212.353 8.54376 213.904 8.54376C215.455 8.54376 216.567 9.67521 216.567 11.2928C216.567 12.9201 215.455 14.0417 213.904 14.0417ZM174.227 31.0561V35.9017H170.022V19.1487H172.915L173.447 20.1265C174.463 19.2512 175.77 18.7452 177.238 18.7452C181.014 18.7452 183.713 21.4681 183.713 25.3028C183.713 29.1376 181.014 31.8734 177.238 31.8734C176.121 31.8734 175.099 31.5808 174.227 31.0561ZM173.904 25.3026C173.904 26.9195 175.075 28.1193 176.669 28.1193C178.252 28.1193 179.433 26.9195 179.433 25.3026C179.433 23.6856 178.262 22.4858 176.669 22.4858C175.075 22.4858 173.904 23.6856 173.904 25.3026ZM204.67 19.1484V31.4567H200.416V19.1484H204.67ZM220.263 31.8606C223.362 31.8606 225.86 30.1055 226.729 27.2965H222.496C222.087 28.017 221.257 28.4508 220.263 28.4508C218.92 28.4508 218.02 27.7207 217.742 26.3089H226.912C226.968 25.9282 227 25.5574 227 25.1865C227 21.5759 224.244 18.7454 220.263 18.7454C216.387 18.7454 213.555 21.52 213.555 25.2934C213.555 29.0536 216.41 31.8606 220.263 31.8606ZM222.81 23.9612H217.817C218.161 22.7386 219.023 22.0673 220.263 22.0673C221.547 22.0673 222.436 22.7311 222.81 23.9612Z" fill="#ADADAD"/>
<path fill-rule="evenodd" clip-rule="evenodd" d="M287 13C287 15.7614 284.761 18 282 18C279.239 18 277 15.7614 277 13C277 10.2386 279.239 8 282 8C284.761 8 287 10.2386 287 13ZM277 23C277 25.7614 274.761 28 272 28C269.239 28 267 25.7614 267 23C267 20.2386 269.239 18 272 18C274.761 18 277 20.2386 277 23ZM348.621 26.502C348.967 26.502 349.396 26.4673 349.908 26.3979C350.42 26.3285 350.842 26.2398 351.173 26.1318V23.1006C350.872 23.1932 350.593 23.2587 350.337 23.2973C350.081 23.3358 349.81 23.3551 349.524 23.3551C348.937 23.3551 348.527 23.2433 348.294 23.0196C348.06 22.7959 347.944 22.4142 347.944 21.8742V17.2233H351.286V14.0996H347.944V10.1429L344.286 10.9527V14.0996H341.87V17.2233H344.286V22.6147C344.286 23.895 344.651 24.863 345.381 25.5186C346.111 26.1742 347.191 26.502 348.621 26.502ZM298.515 26.34V17.9638C298.741 17.6707 299.016 17.4509 299.339 17.3043C299.663 17.1578 300.028 17.0845 300.435 17.0845C301.022 17.0845 301.492 17.2889 301.846 17.6977C302.2 18.1065 302.376 18.6425 302.376 19.3058V26.34H306.034V18.7968C306.034 18.6579 306.031 18.523 306.023 18.3919C306.016 18.2607 306.004 18.1335 305.989 18.0101C306.23 17.717 306.516 17.4894 306.847 17.3275C307.179 17.1655 307.547 17.0845 307.954 17.0845C308.541 17.0845 309.011 17.2889 309.365 17.6977C309.719 18.1065 309.896 18.6425 309.896 19.3058V26.34H313.554V18.7968C313.554 17.3622 313.121 16.1821 312.255 15.2565C311.39 14.331 310.28 13.8682 308.925 13.8682C308.142 13.8682 307.419 14.0148 306.757 14.3078C306.095 14.6009 305.523 15.0174 305.041 15.5573C304.634 15.0329 304.126 14.6202 303.517 14.3194C302.907 14.0186 302.233 13.8682 301.496 13.8682C300.939 13.8682 300.408 13.9531 299.904 14.1227C299.4 14.2924 298.937 14.5469 298.515 14.8863V14.0996H294.857V26.34H298.515ZM321.683 26.5714C322.676 26.5714 323.568 26.4249 324.359 26.1318C325.149 25.8387 325.92 25.3682 326.673 24.7203L324.257 22.5221C323.971 22.8152 323.625 23.0428 323.218 23.2047C322.812 23.3667 322.36 23.4477 321.863 23.4477C321.171 23.4477 320.569 23.2664 320.057 22.9039C319.545 22.5414 319.169 22.0748 318.928 21.504H327.441V20.5785C327.441 19.6221 327.29 18.7312 326.989 17.9059C326.688 17.0807 326.27 16.3749 325.736 15.7887C325.202 15.2025 324.566 14.7398 323.828 14.4004C323.09 14.061 322.285 13.8913 321.412 13.8913C320.539 13.8913 319.722 14.0533 318.962 14.3773C318.202 14.7012 317.543 15.1486 316.986 15.7193C316.429 16.2901 315.989 16.965 315.665 17.744C315.341 18.523 315.18 19.3521 315.18 20.2314C315.18 21.1107 315.349 21.9398 315.688 22.7188C316.026 23.4978 316.485 24.1727 317.065 24.7435C317.645 25.3142 318.333 25.7616 319.131 26.0855C319.929 26.4095 320.78 26.5714 321.683 26.5714ZM318.86 18.8893H323.85C323.655 18.3032 323.335 17.8327 322.891 17.4779C322.447 17.1231 321.931 16.9457 321.344 16.9457C320.742 16.9457 320.223 17.1154 319.786 17.4547C319.349 17.7941 319.041 18.2723 318.86 18.8893ZM335.118 26.5714C336.112 26.5714 337.004 26.4249 337.794 26.1318C338.584 25.8387 339.356 25.3682 340.108 24.7203L337.692 22.5221C337.406 22.8152 337.06 23.0428 336.654 23.2047C336.247 23.3667 335.796 23.4477 335.299 23.4477C334.606 23.4477 334.004 23.2664 333.492 22.9039C332.98 22.5414 332.604 22.0748 332.363 21.504H340.876V20.5785C340.876 19.6221 340.726 18.7312 340.425 17.9059C340.123 17.0807 339.706 16.3749 339.171 15.7887C338.637 15.2025 338.001 14.7398 337.263 14.4004C336.526 14.061 335.72 13.8913 334.847 13.8913C333.974 13.8913 333.157 14.0533 332.397 14.3773C331.637 14.7012 330.978 15.1486 330.421 15.7193C329.864 16.2901 329.424 16.965 329.1 17.744C328.777 18.523 328.615 19.3521 328.615 20.2314C328.615 21.1107 328.784 21.9398 329.123 22.7188C329.462 23.4978 329.921 24.1727 330.5 24.7435C331.08 25.3142 331.769 25.7616 332.567 26.0855C333.364 26.4095 334.215 26.5714 335.118 26.5714ZM332.296 18.8893H337.286C337.09 18.3032 336.77 17.8327 336.326 17.4779C335.882 17.1231 335.366 16.9457 334.779 16.9457C334.177 16.9457 333.658 17.1154 333.221 17.4547C332.785 17.7941 332.476 18.2723 332.296 18.8893ZM354.663 13.2765C355.126 13.2765 355.516 13.1215 355.835 12.8113C356.153 12.5011 356.313 12.1101 356.313 11.6383C356.313 11.1752 356.153 10.7864 355.835 10.4718C355.516 10.1573 355.126 10 354.663 10C354.2 10 353.807 10.1573 353.484 10.4718C353.161 10.7864 353 11.1752 353 11.6383C353 12.1101 353.161 12.5011 353.484 12.8113C353.807 13.1215 354.2 13.2765 354.663 13.2765Z" fill="#ADADAD"/>
<path fill-rule="evenodd" clip-rule="evenodd" d="M417.943 16.9714C417.943 17.2729 417.931 17.5716 417.907 17.867C416.699 15.3143 414.102 13.5482 411.093 13.5429C408.039 13.5401 405.285 15.3791 404.117 18.2007C402.949 21.0224 403.597 24.2699 405.76 26.4263C406.383 27.0485 407.098 27.5444 407.866 27.9069C407.571 27.9307 407.273 27.9429 406.971 27.9429C406.378 27.9429 405.796 27.8957 405.228 27.805C403.358 26.1734 402.175 23.7736 402.171 21.097C402.165 16.1756 406.148 12.1802 411.07 12.1714C413.756 12.1667 416.167 13.3507 417.805 15.2276C417.896 15.7955 417.943 16.378 417.943 16.9714ZM417.805 15.2276C416.97 9.997 412.437 6 406.971 6C400.912 6 396 10.9121 396 16.9714C396 22.4373 399.997 26.9697 405.228 27.805C406.796 29.1735 408.848 30.0017 411.092 30C413.459 29.9982 415.728 29.0554 417.399 27.3795C419.07 25.7035 420.005 23.4319 420 21.0653C419.995 18.8303 419.168 16.7891 417.805 15.2276ZM407.866 27.9069C409.761 28.8009 411.984 28.8835 413.99 28.047C416.808 26.8714 418.639 24.1123 418.629 21.0585C418.623 19.9169 418.365 18.8353 417.907 17.867C417.475 23.2124 413.212 27.4755 407.866 27.9069ZM455.978 18.864V23.1429H453.691L453.707 11.2937H455.978V18.5349L458.99 14.256H461.755L458.545 18.6994L461.968 23.1429H459.056L455.978 18.864ZM448.486 22.9906C447.984 23.2567 447.349 23.3897 446.581 23.3897C445.945 23.3897 445.406 23.2677 444.964 23.0235C444.523 22.7794 444.188 22.453 443.96 22.0443C443.733 21.6357 443.619 21.1845 443.619 20.6907C443.619 20.2793 443.682 19.9035 443.808 19.5634C443.934 19.2233 444.139 18.923 444.421 18.6624C444.704 18.4018 445.083 18.1838 445.561 18.0082C445.89 17.8875 446.282 17.7806 446.737 17.6873C447.193 17.5941 447.708 17.5049 448.284 17.4199L448.637 17.3677L449.003 17.3132L449.36 17.2601L449.345 17.1441C449.292 16.8343 449.177 16.5929 449 16.4201C448.748 16.1733 448.325 16.0498 447.733 16.0498C447.404 16.0498 447.061 16.1294 446.704 16.2885C446.348 16.4475 446.098 16.7301 445.956 17.136L443.931 16.4942C444.156 15.7591 444.579 15.1611 445.199 14.7003C445.819 14.2395 446.663 14.0091 447.733 14.0091C448.517 14.0091 449.214 14.1298 449.823 14.3712C450.432 14.6126 450.893 15.0295 451.205 15.6219C451.381 15.9511 451.485 16.2802 451.518 16.6094C451.551 16.9385 451.568 17.3061 451.568 17.712V23.1429H449.609V22.0512L449.595 22.0687C449.246 22.4764 448.876 22.7837 448.486 22.9906ZM431.276 17.7614V23.1429H429.021V14.256H430.996V15.2304L431.098 15.1109C431.336 14.8463 431.619 14.6245 431.947 14.4453C432.437 14.1765 432.987 14.0421 433.596 14.0421C434.293 14.0421 434.865 14.1902 435.312 14.4864L435.457 14.5888C435.737 14.8009 435.966 15.0569 436.144 15.3568L436.181 15.426C436.461 15.0061 436.827 14.6751 437.279 14.4329C437.764 14.1723 438.303 14.0421 438.896 14.0421C439.91 14.0421 440.677 14.3424 441.195 14.9431C441.714 15.5438 441.973 16.3296 441.973 17.3006V23.1429H439.735V17.893C439.735 17.3061 439.596 16.8494 439.319 16.523C439.042 16.1966 438.66 16.0334 438.171 16.0334C437.859 16.0334 437.587 16.1061 437.357 16.2514C437.126 16.3968 436.947 16.5998 436.818 16.8603C436.689 17.1209 436.624 17.4213 436.624 17.7614V23.1429H434.386V17.893C434.386 17.3061 434.248 16.8494 433.971 16.523C433.694 16.1966 433.311 16.0334 432.823 16.0334C432.357 16.0334 431.982 16.1938 431.7 16.5147C431.417 16.8357 431.276 17.2512 431.276 17.7614ZM447.058 21.6288C446.8 21.6288 446.578 21.5904 446.392 21.5136C446.205 21.4368 446.061 21.3257 445.96 21.1803C445.858 21.035 445.808 20.8608 445.808 20.6578C445.808 20.5097 445.839 20.3753 445.902 20.2546C445.965 20.1339 446.064 20.0229 446.198 19.9214C446.333 19.8199 446.51 19.7253 446.729 19.6375C446.921 19.5662 447.143 19.5003 447.396 19.44C447.648 19.3797 447.98 19.3125 448.391 19.2384C448.648 19.1921 448.955 19.1389 449.311 19.0786L449.341 19.0738L449.341 19.0806C449.338 19.1833 449.334 19.2945 449.327 19.4143L449.317 19.6005C449.298 19.9214 449.231 20.2025 449.115 20.4439C449.055 20.5701 448.941 20.7264 448.774 20.9129C448.607 21.0994 448.382 21.2654 448.099 21.4107C447.817 21.5561 447.47 21.6288 447.058 21.6288ZM470.946 19.3248C471.039 18.2496 470.929 17.3143 470.617 16.5189C470.304 15.7234 469.821 15.1063 469.168 14.6674C468.516 14.2286 467.723 14.0091 466.79 14.0091C465.913 14.0091 465.136 14.208 464.462 14.6057C463.787 15.0034 463.258 15.5616 462.874 16.2802C462.49 16.9989 462.298 17.8437 462.298 18.8146C462.298 19.7033 462.494 20.4919 462.886 21.1803C463.278 21.8688 463.821 22.4091 464.515 22.8014C465.209 23.1936 466.011 23.3897 466.922 23.3897C467.778 23.3897 468.566 23.1648 469.288 22.715C470.009 22.2651 470.537 21.6343 470.872 20.8224L468.634 20.1806C468.469 20.5426 468.23 20.8197 467.918 21.0117C467.605 21.2037 467.229 21.2997 466.79 21.2997C466.094 21.2997 465.566 21.0734 465.206 20.6208C464.958 20.3075 464.795 19.9041 464.718 19.4107L464.707 19.3248H469.868H470.946ZM464.766 17.6626H468.681L468.668 17.5701C468.6 17.1332 468.478 16.7924 468.3 16.5477C468.012 16.1499 467.542 15.9511 466.889 15.9511C466.127 15.9511 465.566 16.1829 465.206 16.6464L465.127 16.7573C464.974 16.9869 464.859 17.2636 464.782 17.5873L464.766 17.6626ZM475.052 23.1429V18.6007C475.052 18.2606 475.099 17.9547 475.192 17.6832C475.285 17.4117 475.422 17.1758 475.603 16.9755C475.784 16.7753 476.006 16.6149 476.27 16.4942C476.533 16.368 476.828 16.2926 477.154 16.2679C477.481 16.2432 477.767 16.2693 478.014 16.3461V14.256C477.745 14.2231 477.477 14.2162 477.208 14.2354C476.939 14.2546 476.678 14.3013 476.426 14.3753C476.174 14.4494 475.941 14.5522 475.727 14.6839C475.447 14.8485 475.211 15.0569 475.019 15.3093C474.942 15.4102 474.872 15.5155 474.807 15.6252L474.772 15.6878V14.256H472.797V23.1429H475.052Z" fill="#ADADAD"/>
</svg>
